<svg width="448" height="448" viewBox="0 0 448 448" fill="none" xmlns="http://www.w3.org/2000/svg">
<path d="M64 0C28.7 0 0 28.7 0 64V384C0 419.3 28.7 448 64 448H384C419.3 448 448 419.3 448 384V141.3C448 124.3 441.3 108 429.3 96L352 18.7C340 6.7 323.7 0 306.7 0H64ZM64 96C64 78.3 78.3 64 96 64H288C305.7 64 320 78.3 320 96V160C320 177.7 305.7 192 288 192H96C78.3 192 64 177.7 64 160V96ZM224 256C240.974 256 257.252 262.743 269.255 274.745C281.257 286.748 288 303.026 288 320C288 336.974 281.257 353.252 269.255 365.255C257.252 377.257 240.974 384 224 384C207.026 384 190.747 377.257 178.745 365.255C166.743 353.252 160 336.974 160 320C160 303.026 166.743 286.748 178.745 274.745C190.747 262.743 207.026 256 224 256Z" fill="white"/>
</svg>
